<?xml version="1.0" standalone="no"?><!DOCTYPE svg PUBLIC "-//W3C//DTD SVG 1.1//EN" "http://www.w3.org/Graphics/SVG/1.1/DTD/svg11.dtd"><svg t="1707823984539" class="icon" viewBox="0 0 1024 1024" version="1.1" xmlns="http://www.w3.org/2000/svg" p-id="3143" xmlns:xlink="http://www.w3.org/1999/xlink" width="200" height="200"><path d="M706.68 443.67l194.5-194.5c0.74-0.74 0.74-1.93 0-2.67L766.51 111.8c-0.74-0.74-1.93-0.74-2.67 0L569.31 306.3l39.76 39.76L363.03 592.1l-55.02-55.02c-15.99-15.99-41.89-15.99-57.87 0s-15.99 41.89 0 57.87l1.68 1.68-114.25 114.22c-50.15 50.14-53.44 136.43 1.88 180.79 21.17 16.98 46.94 25.44 72.71 25.44 29.8 0 59.61-11.35 82.29-34.01l121.9-121.9 1.68 1.68c7.99 7.99 18.46 11.99 28.94 11.99s20.94-4 28.94-11.99c15.99-15.99 15.99-41.89 0-57.87l-55-55 246.04-246.04 39.73 39.73zM236.59 825.2c-13.47 13.39-35.35 13.43-48.82 0-6.51-6.51-10.09-15.19-10.09-24.38 0-9.23 3.58-17.91 10.09-24.42l102.7-102.68 48.8 48.8L236.59 825.2z m528.58-598.99l21.6 21.62-80.09 80.09-21.62-21.62 80.11-80.09z" p-id="3144"></path><path d="M885.36 669.51c-27.42-27.42-64.66-40.93-102.32-40.93-23.59 0-46.88 6.06-67.97 17L409.92 340.43c29.75-54.85 22.09-124.61-24.27-170.63-46.66-47.06-124.01-53.61-179.26-19.64l61.39 61.39c4.91-1.64 10.23-2.46 15.55-2.46 16.78 0 32.74 6.55 44.61 18.42 12.28 12.28 18.01 28.24 18.01 44.2 0 16.15-5.64 31.88-17.59 44.09-0.17 0.16-0.4 0.21-0.57 0.38-0.12 0.12-0.15 0.29-0.27 0.41-23.8 22.97-64.77 22.94-88.39-0.27-15.96-16.37-21.28-39.29-15.96-60.16l-61.8-61.8c-14.73 22.92-22.51 49.52-22.51 77.35 0 38.88 15.14 74.89 42.56 102.32 27.01 27.42 63.44 42.15 101.91 42.15 24.64 0 47.84-6.55 68.72-17.87L656.8 703.06c-29.67 54.61-21.99 124.35 24.34 170.67 27.01 27.42 63.44 42.16 101.91 42.16 27.83 0 54.43-7.78 77.35-22.51l-61.39-61.39c-20.87 5.32-43.79 0-60.16-16.37-24.54-24.13-24.55-63.79-0.03-88.35 0.01-0.01 0.03-0.02 0.04-0.03 0.01-0.02 0.02-0.04 0.03-0.05 24.56-24.52 64.22-24.51 88.35 0.03 16.37 16.37 21.69 39.29 15.96 59.75l31.92 31.92L905 848.77c35.2-56.07 28.65-130.97-19.64-179.26z" p-id="3145"></path></svg>