<?xml version="1.0" standalone="no"?><!DOCTYPE svg PUBLIC "-//W3C//DTD SVG 1.1//EN" "http://www.w3.org/Graphics/SVG/1.1/DTD/svg11.dtd"><svg t="1707825019946" class="icon" viewBox="0 0 2684 1024" version="1.1" xmlns="http://www.w3.org/2000/svg" p-id="16625" xmlns:xlink="http://www.w3.org/1999/xlink" width="524.21875" height="200"><path d="M1263.059003 627.334186m-24.611608 0a24.611608 24.611608 0 1 0 49.223216 0 24.611608 24.611608 0 1 0-49.223216 0Z" fill="#FFFFFF" p-id="16626"></path><path d="M2665.658849 490.923038v-47.390438l-111.275888-55.245205c34.299156-27.49169 62.052672-59.696241 87.973408-96.351829 2.356431-3.403733 3.927384-7.592943 3.927385-12.043978 0-11.782153-9.425722-21.469701-21.469701-21.731527h-194.27461l17.280491-38.750191-46.343135-0.261826-36.393761 80.904117h220.980823c-20.94605 25.397085-40.844797 48.175914-69.383789 69.121963l-126.461775-63.623625-19.11327 37.702889 104.468422 52.365124c-33.513679 19.375096-70.431092 36.393761-110.752237 50.79417v44.24853c54.197903-18.851445 105.515725-43.201227 151.335208-74.620302l149.502429 74.882128zM1057.264065 378.338021c7.854769-46.343135-22.778829-65.456405-65.980056-65.456405h-35.346459l-0.261825 41.892099h41.368448c7.592943 0 18.065968 6.545641 15.447711 23.564306l-56.030682 336.969573c-5.760164 37.702889 22.517003 66.765533 65.980056 66.765533h35.084633v-41.892099h-35.084633c-12.829455 0-26.444388-11.520327-24.087957-24.611608l58.910764-337.231399zM955.413899 222.813603h102.111992v41.892099h-102.111992zM1242.374779 298.219381v46.343135h-90.591665v41.892099h90.591665v61.00537h-81.427768V489.613909h205.533112v-42.153924h-81.951419v-61.00537H1375.120368v-41.892099h-90.591664v-46.343135zM2290.20091 715.56942c0 13.614932-10.473025 24.611608-24.087957 24.611608h-20.422398v-113.894145h17.280491c36.917412 0 65.980056-30.371772 65.980056-66.765533v-187.205318c0-36.393761-29.062644-66.765533-65.980056-66.765533h-17.280491V222.813603h-41.892099v82.998721h-17.280491c-36.393761 0-66.765533 30.371772-66.765533 66.765533v187.205319c0 36.393761 30.371772 66.765533 66.765533 66.765533h17.280491v113.894144h-84.046024v41.8921h146.360521c36.393761 0 66.765533-30.371772 66.765533-66.765533v-29.32447h-42.677576v29.32447z m-44.510355-367.864997h17.280491c13.091281 0 24.087957 10.473025 24.087957 24.611609v187.205318c0 13.614932-10.996676 24.611608-24.087957 24.611608h-17.280491v-236.428535z m-41.892099 236.690361h-17.280491c-13.614932 0-24.087957-10.996676-24.087957-24.611608v-187.205319c0-14.138583 10.473025-24.611608 24.087957-24.611608h17.280491v236.428535z" fill="#FFFFFF" p-id="16627"></path><path d="M2536.578819 643.8292h114.679621v-41.8921h-114.679621v-42.677576h129.08003v-41.892099h-129.08003v-33.251854h-41.8921v33.251854H2364.821212v41.892099h129.865507v42.677576h-114.679621v41.8921h114.679621v42.41575h-144.527742v41.892099h144.527742V782.858604h41.8921v-54.721555h144.527742v-41.892099h-144.527742zM1364.647343 222.813603h-202.65303c-43.201227 0-77.238558 34.560982-77.762209 77.238558l-0.523651 482.020966 41.892099 0.261826 0.785477-481.23549c0.523651-19.636922 15.447712-36.393761 35.87011-36.393761H1364.647343c19.11327 0 35.084633 15.971363 35.084633 35.87011v412.375351c0 7.592943-2.618256 14.662235-6.807466 20.422399l-45.819483-45.819484c12.305804-17.018665 19.636922-37.964715 19.636921-60.481718 0-57.339811-46.60496-103.944771-103.944771-103.944771s-103.944771 46.60496-103.944771 103.944771 46.60496 103.944771 103.944771 103.944771c19.375096 0 37.441064-5.498338 53.150601-14.662235l31.6809 31.6809 26.706213 26.706214h0.261826c4.18921 4.451036 10.473025 7.331117 17.280491 7.331117 3.403733 0 6.807466-0.785477 9.687548-2.356431 23.826131-12.829455 40.321145-37.702889 40.321145-67.289184V300.575812c0-42.677576-35.084633-77.762209-77.238558-77.762209z m-101.58834 466.049603c-34.037331 0-61.529021-27.49169-61.529021-61.52902 0-33.775505 27.49169-61.529021 61.529021-61.529021s61.529021 27.49169 61.529021 61.529021c-0.261826 33.775505-27.753516 61.529021-61.529021 61.52902zM1516.506203 740.181028h532.815137v41.892099H1516.506203zM1729.632258 310.525185h32.204551v114.155971h-104.468422c-41.368448 0-75.92943 34.560982-75.92943 75.92943v125.414472c0 42.677576 34.560982 76.453081 75.92943 76.453081h258.683712c41.368448 0 76.453081-34.037331 76.453081-76.453081v-125.414472c0-41.368448-35.084633-75.92943-76.453081-75.92943h-112.323191v-114.155971h31.942726l213.38788 176.732294v-54.98338l-147.407824-121.748914h114.417796v-41.892099h-212.340578V222.813603h-41.892099v45.819483h-212.602403v41.892099h127.509076C1636.945988 356.606495 1584.580864 393.262081 1516.506203 425.204807v46.60496c94.257223-42.939402 163.117361-92.948095 213.126055-161.284582z m220.457172 315.499873c0 19.11327-14.92406 34.560982-34.037331 34.560981h-258.683712c-19.11327 0-34.037331-15.447712-34.037331-34.560981v-41.8921h326.758374v41.8921z m-34.037331-159.189977c19.11327 0 34.037331 15.447712 34.037331 34.03733V541.979033H1623.331056v-41.368447c0-18.589619 14.92406-34.037331 34.037331-34.037331h258.683712z" fill="#FFFFFF" p-id="16628"></path><path d="M798.318527 514.225518c0-41.106622-15.971363-79.594988-45.034006-108.657633-18.589619-18.589619-53.150601-34.822807-105.2539-49.485042 2.094605-11.782153 2.880082-23.564306 2.356431-35.084633 42.939402-4.18921 80.904117-34.299156 92.686269-78.28586 15.185886-56.81616-18.589619-115.203273-75.405778-130.389159-50.008693-13.353107-101.326515 11.258502-123.319867 56.292508-6.807466-2.880082-13.876758-5.236512-21.207875-7.331117-7.331117-2.094605-14.92406-3.403733-22.255178-4.18921 3.665559-50.008693-28.538993-97.137305-78.547686-110.490412-56.81616-15.185886-115.203273 18.589619-130.389159 75.405779-11.782153 44.24853 6.021989 89.282536 41.368448 114.417796-6.021989 9.687548-11.258502 20.422398-15.447712 31.6809-52.62695-13.091281-90.591665-16.495014-115.988749-9.687548-55.245206 14.662235-95.304526 58.125288-108.657633 109.704935 0 0.261826-0.261826 0.261826-0.261825 0.523651L42.427962 558.212222c-2.618256 9.949374 3.141907 20.160573 13.353107 23.040655 9.949374 2.618256 20.160573-3.141907 23.040654-13.353107l25.397085-95.0427c17.542317 36.393761 49.223217 64.670928 87.711583 78.28586-20.160573 96.613654 26.706213 193.489133 111.275889 238.784966l-76.453081 72.002045 95.566351 25.658911-104.992074 94.780874 259.46919-124.367169-93.995398-25.13526 18.065968-16.756839c95.566351 2.880082 184.325237-57.601636 215.22066-151.073383 40.321145 7.592943 81.689593-1.047302 115.203272-23.826132l-25.397085 95.042701c-2.618256 9.949374 3.141907 20.160573 13.353107 23.040654 9.949374 2.618256 20.160573-3.141907 23.040655-13.353106l50.79417-190.085401v-0.785477c3.141907-13.353107 5.236512-26.968039 5.236512-40.844796z" fill="#383838" p-id="16629"></path><path d="M217.065651 1024c-13.614932 0-26.706213-6.545641-34.822808-18.589619-11.520327-17.280491-8.640245-40.321145 6.807466-54.197903l47.914089-43.201228-21.207875-5.760163c-14.662235-3.927384-25.920736-15.447712-29.586295-30.109947-3.665559-14.662235 0.785477-30.109946 11.782152-40.582971l39.012018-36.655587C174.388075 740.966505 139.827093 659.276911 146.110908 576.016364c-7.854769-4.451036-15.447712-9.425722-22.517004-14.92406l-4.712861 17.542316c-4.18921 15.709537-14.138583 28.538993-28.277167 36.655587-14.138583 8.116594-30.371772 10.211199-45.819483 6.021989-15.447712-3.927384-28.538993-13.876758-36.655587-28.015341-8.116594-13.876758-10.211199-30.371772-6.021989-45.819483L52.900987 357.391971c0.261826-1.047302 0.523651-2.094605 1.047302-3.141907 17.804142-65.980056 70.431092-118.607006 137.458451-136.672974 19.375096-5.236512 42.41575-6.283815 70.692917-3.141907-15.447712-31.6809-19.898747-68.598312-10.473024-103.682946 21.207875-79.071337 102.635643-125.938123 181.70698-104.730248 51.317822 13.614932 90.068013 53.412426 104.206597 102.373818 36.655587-35.346459 90.068013-50.270519 141.385834-36.655587 79.071337 21.207875 125.938123 102.635643 104.730248 181.70698-9.425722 35.346459-31.6809 64.932754-60.743543 84.569675 26.182562 11.520327 45.819484 23.826131 59.958067 38.226541 36.917412 36.917412 57.339811 85.878803 57.33981 138.243927 0 16.233188-2.094605 32.466377-6.283814 48.699566-0.261826 1.309128-0.523651 2.356431-0.785477 3.403733l-50.794171 189.823574c-8.640245 32.204551-41.892099 51.317822-74.09665 42.677576-15.709537-4.18921-28.538993-14.138583-36.655587-28.277167-8.116594-13.876758-10.211199-30.371772-6.021989-45.819483l4.712861-17.542317c-8.902071 1.309128-18.065968 1.832779-27.229864 1.83278-27.229864 56.81616-74.358476 101.326515-130.91281 126.199949 3.403733 5.498338 5.760164 11.782153 6.283814 18.589619 1.570954 17.280491-7.854769 34.037331-23.564305 41.630273l-259.46919 124.36717c-6.021989 2.618256-12.305804 3.927384-18.327793 3.927384z m141.124009-157.357198c0.261826 0.523651 0.523651 0.785477 0.785477 1.309128l0.785477-0.261825c-0.523651-0.261826-1.047302-0.523651-1.570954-1.047303z m-48.43774-25.397085l23.040655 6.283815c4.974687 1.309128 9.425722 3.403733 13.614932 6.283815-1.832779-3.403733-3.403733-7.069292-4.451036-10.996676-3.665559-14.662235 1.047302-30.371772 12.043979-40.582971l18.065968-16.75684c8.116594-7.592943 18.327793-11.782153 29.586295-11.258502 78.28586 1.832779 149.764255-48.175914 174.375863-122.53439 6.545641-19.898747 26.968039-31.942726 47.390437-28.015341 29.062644 5.498338 59.434416-0.785477 84.046024-17.542317 8.902071-6.021989 19.898747-8.37842 30.109946-6.807466l13.876758-52.103298c0-0.785477 0.261826-1.309128 0.523651-2.094605 3.141907-11.520327 4.451036-21.469701 4.451036-31.157249 0-29.848121-11.520327-57.863462-32.728202-79.071337-7.331117-7.331117-28.538993-22.255178-87.187932-39.012017-20.684224-5.760164-33.251854-26.182562-29.586295-47.390438 1.570954-8.902071 2.094605-17.804142 1.832779-26.444387-0.785477-21.993352 15.709537-40.844797 37.70289-42.939402 26.706213-2.618256 49.485042-21.731526 56.554334-47.652263 9.163897-34.560982-11.258502-70.169266-45.819484-79.333163-29.848121-7.854769-61.529021 6.283815-74.882127 34.299156-9.687548 19.898747-32.990028 28.800818-53.412427 20.422399-6.283815-2.618256-11.258502-4.18921-15.971363-5.498338-4.712861-1.309128-10.211199-2.356431-17.018665-3.141908-21.993352-2.880082-37.964715-22.255178-36.393761-44.510355 2.094605-30.895423-17.804142-59.17259-47.914089-67.289184-34.560982-9.163897-70.169266 11.258502-79.333162 45.819483-7.069292 25.920736 3.141907 53.936078 25.135259 69.645615 18.065968 12.829455 23.040655 37.441064 11.258502 56.030683-4.712861 7.331117-8.37842 15.447712-11.520328 23.826131-7.331117 20.160573-28.538993 31.419074-49.485042 26.182562-59.17259-14.92406-84.831501-12.56763-94.780874-9.949373-38.488366 10.211199-68.860138 40.844797-79.071337 79.856814-0.261826 1.047302-0.523651 2.094605-1.047303 3.141907l-14.138583 52.62695c9.687548 3.665559 18.065968 10.996676 22.778829 20.946049 12.829455 26.444388 36.131936 47.390437 63.885451 57.077986 19.898747 6.807466 31.419074 27.49169 27.229864 47.914088-15.971363 76.976732 20.94605 156.309895 90.068014 193.489133 11.782153 6.283815 19.898747 18.065968 21.731526 31.419075 1.832779 13.353107-2.880082 26.706213-12.829455 35.87011l-21.731527 20.946049z" fill="#FFFFFF" p-id="16630"></path><path d="M125.688509 552.713884c-6.807466-1.832779-13.876758 2.356431-15.709537 9.163897l-35.084633 130.650984c-1.832779 6.807466 2.356431 13.876758 9.163897 15.709537 6.807466 1.832779 13.876758-2.356431 15.709537-9.163896l35.084633-130.650985c1.832779-6.807466-2.356431-13.876758-9.163897-15.709537z" fill="#383838" p-id="16631"></path><path d="M87.461969 750.392227c-4.712861 0-9.687548-0.523651-14.400409-1.832779-29.062644-7.854769-46.343135-37.702889-38.488366-66.765533l35.084633-130.650985c7.854769-29.062644 37.702889-46.343135 66.765533-38.750192 14.138583 3.665559 25.920736 12.829455 33.251853 25.397086 7.331117 12.56763 9.163897 27.49169 5.498339 41.368448l-35.084634 130.650984c-3.665559 14.138583-12.829455 25.920736-25.397085 33.251854-8.37842 4.974687-17.804142 7.331117-27.229864 7.331117z" fill="#FFFFFF" p-id="16632"></path><path d="M672.380404 699.074406c-6.807466-1.832779-13.876758 2.356431-15.709537 9.163896l-35.084633 130.650985c-1.832779 6.807466 2.356431 13.876758 9.163896 15.709537 6.807466 1.832779 13.876758-2.356431 15.709538-9.163897l35.084633-130.650984c1.832779-6.807466-2.094605-13.614932-9.163897-15.709537z" fill="#383838" p-id="16633"></path><path d="M634.153863 897.014574c-4.712861 0-9.687548-0.523651-14.400409-1.832779-13.876758-3.665559-25.658911-12.829455-32.990028-25.397085-7.331117-12.56763-9.163897-27.229864-5.498338-41.368448l35.084633-130.650985c7.854769-29.062644 37.702889-46.343135 66.765533-38.750191 14.138583 3.665559 25.920736 12.829455 33.251854 25.397085 7.331117 12.56763 9.163897 27.49169 5.498338 41.368448l-35.084633 130.650984c-3.665559 14.138583-12.829455 25.920736-25.397085 33.251854-8.37842 4.712861-17.804142 7.331117-27.229865 7.331117z" fill="#FFFFFF" p-id="16634"></path><path d="M337.24361 758.246996l-110.490411 103.944771 95.304525 25.397085-104.992073 94.780874 259.469189-124.367169-93.995397-25.13526 78.28586-72.787522z" fill="#383838" p-id="16635"></path><path d="M608.233127 591.987727v-0.523651c-0.261826-6.807466-0.523651-13.353107-1.570954-19.898747-5.236512-79.856814-1.832779-126.461774 18.327794-200.034774 0.523651-1.832779 1.047302-3.403733 1.570953-5.236513 21.731526-81.427768-26.444388-165.211966-108.133981-187.205318-81.427768-21.731526-165.211966 26.444388-187.205318 108.133981-0.261826 1.047302-0.523651 1.832779-0.785477 2.880082-19.375096 75.667604-39.797494 118.083355-85.355152 185.89619-3.403733 4.712861-6.807466 9.687548-9.949373 14.662235-0.261826 0.523651-0.523651 0.785477-0.785477 1.309128-9.687548 15.971363-17.280491 33.251854-22.255178 52.103298-28.800818 107.348504 35.084633 217.838916 142.433137 246.639735s217.838916-35.084633 246.639734-142.433138c5.236512-18.851445 7.592943-37.702889 7.069292-56.292508z" fill="#FFFFFF" p-id="16636"></path><path d="M350.073066 808.77934c-117.297878-31.419074-186.943493-152.382511-155.524419-269.418563 5.236512-19.375096 13.091281-37.964715 23.302481-55.507031 0.523651-0.785477 0.785477-1.570954 1.309128-2.618256l0.523651-0.785477c3.141907-5.236512 6.807466-10.473025 10.73485-15.709537 45.295832-67.55101 63.885451-107.872155 82.213245-179.35055l0.785477-3.141908c24.611608-91.377141 118.868832-145.83687 210.245973-121.225262 91.377141 24.611608 145.83687 118.868832 121.225262 210.245973-0.523651 1.832779-1.047302 3.665559-1.570954 5.236513-19.11327 69.645615-23.30248 112.846842-17.804142 193.227307 0.785477 6.283815 1.309128 12.56763 1.570954 18.851445 0.261826 1.832779 0.261826 3.927384 0 5.760164 0.261826 19.898747-2.356431 39.535669-7.592943 58.648938-31.419074 117.297878-152.120685 187.205318-269.418563 155.786244zM251.102981 500.872411c-0.261826 0.261826-0.261826 0.523651-0.523651 0.785477-8.902071 14.92406-15.709537 30.633598-20.160573 47.390437-26.182562 97.137305 31.942726 197.678343 129.080031 223.59908 97.137305 26.182562 197.678343-31.942726 223.59908-129.080031 4.451036-16.495014 6.545641-33.775505 6.283814-51.055996v-0.785477c-0.261826-6.283815-0.523651-12.043979-1.309128-17.542316v-1.047303c-5.760164-84.569675-1.309128-132.745589 19.113271-206.318588 0-0.261826 0.261826-0.785477 0.261825-1.047303 0.523651-1.309128 0.785477-2.618256 1.309128-4.18921 19.11327-71.478394-23.30248-145.051394-94.780874-164.164663-71.478394-19.11327-145.051394 23.30248-164.164664 94.780874l-0.523651 2.618256c-19.375096 75.405779-40.05932 120.17796-87.973408 191.656354-3.665559 5.236512-6.807466 9.687548-9.425723 13.876758-0.523651 0.261826-0.523651 0.523651-0.785477 0.523651z" fill="#383838" p-id="16637"></path><path d="M570.792063 718.449501c12.305804-18.065968 21.993352-38.488366 28.015342-61.005369 2.094605-7.592943 3.403733-14.92406 4.451035-22.517003-60.219893 28.800818-130.650984 37.179238-200.296599 18.589619-79.071337-21.207875-141.64766-73.049348-178.303247-139.29123-6.283815 12.305804-11.258502 25.13526-14.924061 39.012017-3.403733 12.829455-5.498338 25.920736-6.283815 38.750192 36.655587 66.503707 99.493736 118.607006 178.565073 139.814881 65.456405 17.280491 131.436461 10.996676 188.776272-13.353107z" fill="#383838" p-id="16638"></path><path d="M411.863912 622.097673c66.241882 17.804142 133.269241 10.996676 191.394528-14.662234-0.261826-6.021989-0.523651-11.782153-1.309128-17.804143-1.309128-18.589619-2.094605-35.346459-2.094605-51.055996-52.103298 17.542317-109.96676 20.422398-167.044745 4.974687-65.194579-17.542317-119.392483-56.030683-156.833547-106.039376-9.949374 17.542317-21.469701 35.87011-35.346458 56.554334l-0.261826 0.261826c37.441064 60.743544 97.137305 107.872155 171.495781 127.770902z" fill="#383838" p-id="16639"></path><path d="M640.437678 214.958834m-87.711582 0a87.711583 87.711583 0 1 0 175.423165 0 87.711583 87.711583 0 1 0-175.423165 0Z" fill="#FFFFFF" p-id="16640"></path><path d="M612.945988 317.856303c-56.81616-15.185886-90.591665-73.834825-75.405778-130.389159s73.834825-90.591665 130.389158-75.405779 90.591665 73.834825 75.405779 130.389159c-15.185886 56.81616-73.834825 90.591665-130.389159 75.405779z m45.295832-169.663002c-36.917412-9.949374-74.620302 12.043979-84.569675 48.961391s12.043979 74.620302 48.961391 84.569675 74.620302-12.043979 84.569675-48.961391-12.043979-74.620302-48.961391-84.569675z" fill="#383838" p-id="16641"></path><path d="M655.88539 202.129379m-36.393761 0a36.393761 36.393761 0 1 0 72.787522 0 36.393761 36.393761 0 1 0-72.787522 0Z" fill="#383838" p-id="16642"></path><path d="M395.107072 149.240603m-87.711582 0a87.711583 87.711583 0 1 0 175.423165 0 87.711583 87.711583 0 1 0-175.423165 0Z" fill="#FFFFFF" p-id="16643"></path><path d="M367.353557 252.138072c-56.81616-15.185886-90.591665-73.834825-75.405779-130.389159s73.834825-90.591665 130.389159-75.405778 90.591665 73.834825 75.405778 130.389159-73.572999 90.591665-130.389158 75.405778z m45.557658-169.663002c-36.917412-9.949374-74.620302 12.043979-84.569676 48.961391s12.043979 74.620302 48.961391 84.569676 74.620302-12.043979 84.569675-48.961391-12.043979-74.620302-48.96139-84.569676z" fill="#383838" p-id="16644"></path><path d="M388.037781 130.389159m-36.393762 0a36.393761 36.393761 0 1 0 72.787523 0 36.393761 36.393761 0 1 0-72.787523 0Z" fill="#383838" p-id="16645"></path><path d="M549.322363 609.530043c52.62695 52.62695 137.982102 52.62695 190.609051 0s52.62695-137.982102 0-190.609051-269.156737-78.547686-269.156737-78.547686 25.920736 216.529788 78.547686 269.156737z" fill="#FFFFFF" p-id="16646"></path><path d="M739.931414 418.920992c-52.62695-52.62695-269.156737-78.547686-269.156737-78.547686v0.261826c80.904117 23.826131 189.561749 62.314498 224.384556 104.992073 44.24853 54.459729 48.175914 128.556379 15.447712 186.158016 10.473025-6.021989 20.422398-13.091281 29.324469-21.993352 52.888775-52.888775 52.888775-138.243927 0-190.870877z" fill="#EFEFEF" p-id="16647"></path><path d="M604.829394 662.680644c-25.920736-7.069292-49.746868-20.684224-68.598312-39.797494-55.768857-55.768857-81.165942-257.374585-83.784199-280.153413l-2.880082-23.564306 23.564306 2.880082c3.403733 0.523651 86.926106 10.473025 163.641013 31.157248 58.648939 15.709537 96.875479 32.990028 116.512401 52.888776 29.062644 29.062644 45.034007 67.55101 45.034006 108.657632s-15.971363 79.594988-45.034006 108.657632c-38.750192 38.226541-95.566351 53.412426-148.455127 39.273843z m-112.323191-300.313986c10.211199 69.907441 35.084633 199.249297 69.907441 234.072104 14.400409 14.400409 32.466377 24.873434 51.841472 30.109947 40.05932 10.73485 82.998722-0.785477 112.323191-30.109947 21.993352-21.993352 34.037331-51.055996 34.037331-82.213244 0-30.895423-12.043979-60.219893-34.037331-82.213245-10.211199-10.211199-35.87011-25.920736-99.755561-43.201227-49.746868-13.091281-103.944771-21.993352-134.316543-26.444388z" fill="#383838" p-id="16648"></path><path d="M277.023718 536.742521c-72.002046 19.375096-145.83687-23.30248-165.211967-95.304526s23.30248-145.83687 95.304526-165.211966S479.676748 342.729737 479.676748 342.729737s-130.650984 174.637689-202.65303 194.012784z" fill="#FFFFFF" p-id="16649"></path><path d="M207.116277 276.226029c72.002046-19.375096 272.56047 66.503707 272.560471 66.503708v0.261825c-81.951419-19.898747-195.321913-40.844797-246.90156-21.207875-65.456405 25.13526-105.77755 87.187931-106.563027 153.429813-6.021989-10.473025-10.996676-21.731526-14.40041-33.775505-19.375096-72.002046 23.30248-146.098696 95.304526-165.211966z" fill="#EFEFEF" p-id="16650"></path><path d="M202.403416 554.808489c-52.888775-14.138583-94.519049-55.768857-108.657632-108.657632-21.993352-81.689593 26.706213-166.259269 108.657632-187.990796 26.968039-7.331117 68.860138-3.141907 127.509077 12.56763 76.714907 20.684224 153.953465 53.412426 157.357198 54.98338l21.993352 9.425723-14.400409 19.11327c-13.876758 18.327793-136.672974 180.397852-212.86423 200.82025-26.182562 6.807466-53.674252 6.807466-79.594988-0.261825z m117.559703-247.948862c-64.147277-17.280491-93.995398-16.233188-108.133981-12.56763-61.790846 16.495014-98.708259 80.380465-82.213244 142.171312 10.73485 40.05932 42.153925 71.478394 82.213244 82.213244 19.636922 5.236512 40.321145 5.236512 59.958067 0 47.652263-12.829455 133.792892-112.323191 177.517771-167.830222-28.015341-11.258502-79.333163-30.633598-129.341857-43.986704z" fill="#383838" p-id="16651"></path><path d="M55.781069 581.252877c-9.949374-2.618256-15.971363-12.829455-13.353107-23.040655l50.79417-190.0854c2.618256-9.949374 12.829455-15.971363 23.040655-13.353107s15.971363 12.829455 13.353107 23.040655l-50.794171 190.0854c-2.880082 9.949374-13.091281 15.971363-23.040654 13.353107z" fill="#383838" p-id="16652"></path><path d="M84.058236 708.238302c-6.807466-1.832779-10.996676-8.902071-9.163897-15.709537l35.084633-130.650984c1.832779-6.807466 8.902071-10.996676 15.709537-9.163897s10.996676 8.902071 9.163897 15.709537L99.767773 699.074406c-1.832779 6.807466-8.902071 10.996676-15.709537 9.163896z" fill="#383838" p-id="16653"></path><path d="M718.723539 758.770647c9.949374 2.618256 20.160573-3.141907 23.040654-13.353107l50.794171-190.0854c2.618256-9.949374-3.141907-20.160573-13.353107-23.040654s-20.160573 3.141907-23.040655 13.353106L705.370432 735.729992c-2.356431 10.211199 3.403733 20.422398 13.353107 23.040655zM630.75013 854.598824c6.807466 1.832779 13.876758-2.356431 15.709538-9.163897l35.084633-130.650984c1.832779-6.807466-2.356431-13.876758-9.163897-15.709537-6.807466-1.832779-13.876758 2.356431-15.709537 9.163896l-35.084633 130.650985c-1.570954 6.807466 2.356431 13.876758 9.163896 15.709537z" fill="#383838" p-id="16654"></path></svg>